<?xml version="1.0" encoding="UTF-8"?>
<svg id="Layer_1" data-name="Layer 1" xmlns="http://www.w3.org/2000/svg" version="1.1" viewBox="0 0 222.7 43.2">
  <defs>
    <style>
      .cls-1 {
        fill: #646464;
      }

      .cls-1, .cls-2, .cls-3, .cls-4 {
        stroke-width: 0px;
      }

      .cls-2 {
        fill: #000;
      }

      .cls-3 {
        fill: #772638;
      }

      .cls-4 {
        fill: #a87480;
      }
    </style>
  </defs>
  <path class="cls-1" d="M4.8,11.7h4.1l6.5,12.6,2.1,4.8h.1c0-2.3-.3-5.2-.2-7.7l.5-9.8h3.8l-1,22.6h-4.1l-6.5-12.6-2.1-4.8h0c0,2.4.3,5.1.2,7.6l-.5,9.9h-3.8l1-22.6h0Z"/>
  <path class="cls-1" d="M23.1,21.9c.5-5.2,3.6-8.2,7.8-8.1,4.2,0,6.8,3.2,6.3,8.3-.5,5.2-3.6,8.3-7.8,8.3s-6.8-3.3-6.3-8.5ZM34,22c.3-3.4-1-5.4-3.4-5.4s-4.1,2-4.4,5.3c-.3,3.4,1,5.5,3.4,5.6s4.1-2.1,4.4-5.5Z"/>
  <path class="cls-2" d="M25.1,36.5l4.2-3c1.4,2.5,3.2,3.6,5.3,3.6,3.2,0,4.8-1.7,4.8-6.6V7.6h6v23.3c0,6.2-3.1,11.3-10.2,11.3s-8-2-10.2-5.8h.1Z"/>
  <path class="cls-2" d="M47.7,28.9c0-8.5,5.8-13.4,12.1-13.4s12.1,4.9,12.1,13.4-5.8,13.4-12.1,13.4-12.1-4.9-12.1-13.4ZM65.8,28.9c0-5.1-2.2-8.5-6-8.5s-6,3.4-6,8.5,2.2,8.5,6,8.5,6-3.4,6-8.5Z"/>
  <path class="cls-2" d="M79,39h-.2l-.5,2.7h-4.7V4.9h6v9.5l-.2,4.2c2.1-1.9,4.8-3.2,7.4-3.2,6.4,0,10.1,5.1,10.1,13s-5.2,13.8-10.9,13.8-4.8-1.2-7-3.3h0ZM90.7,28.5c0-5.1-1.7-8.1-5.6-8.1s-3.6.9-5.6,2.9v11.9c1.8,1.6,3.6,2.1,5.1,2.1,3.4,0,6-3,6-8.8h0Z"/>
  <path class="cls-3" d="M148,38.8l2.4-2.7c1.5,1.5,3.7,2.6,5.8,2.6s3.9-1.2,3.9-2.9-1.5-2.4-3.6-3.2l-3.1-1.4c-2.2-.9-4.6-2.7-4.6-6s3.2-6.3,7.5-6.3,5.1,1,7,2.9l-2,2.6c-1.4-1.2-2.9-1.9-4.9-1.9s-3.6,1-3.6,2.7,1.7,2.4,3.6,3.2l3.1,1.2c2.7,1.2,4.6,2.7,4.6,6.1s-3.1,6.6-8,6.6-6-1.2-8.2-3.2l.2-.3h0Z"/>
  <path class="cls-3" d="M166.1,24.8h3.2l.3,2.4h0c1.4-1.5,3.1-2.7,5.1-2.7s3.9,1.2,4.6,3.1c1.5-1.7,3.2-3.1,5.5-3.1,3.6,0,5.3,2.4,5.3,6.6v10.6h-3.9v-10.1c0-2.7-.9-3.7-2.6-3.7s-2.2.7-3.6,2v11.8h-3.9v-10.1c0-2.7-.9-3.7-2.6-3.7s-2.2.7-3.6,2v11.8h-3.9v-16.9h0Z"/>
  <path class="cls-3" d="M192.2,37.3c0-3.6,3.1-5.5,9.9-6.3,0-1.9-.9-3.4-3.1-3.4s-3.2.7-4.8,1.7l-1.5-2.7c1.9-1.2,4.3-2.2,7-2.2,4.3,0,6.3,2.6,6.3,7.3v10.1h-3.2l-.3-1.9h0c-1.5,1.4-3.2,2.2-5.3,2.2s-4.9-2-4.9-4.9v.2h0ZM202,37.3v-3.7c-4.6.5-6.1,1.7-6.1,3.4s1,2.2,2.4,2.2,2.4-.7,3.7-1.9h0Z"/>
  <path class="cls-3" d="M208.2,37.5v-19.9h3.9v20.1c0,1,.5,1.4.9,1.4h.7l.5,2.9c-.5.2-1.2.3-2,.3-2.7,0-3.9-1.9-3.9-4.8h0Z"/>
  <path class="cls-3" d="M215.5,37.5v-19.9h3.9v20.1c0,1,.5,1.4.9,1.4h.7l.5,2.9c-.5.2-1.2.3-2,.3-2.7,0-3.9-1.9-3.9-4.8h0Z"/>
  <path class="cls-4" d="M102.5,1.1h2.4l-2.9,14.4h-2.4s2.9-14.4,2.9-14.4Z"/>
  <path class="cls-4" d="M103.1,13.7l1.4-1.1c.7.9,1.6,1.5,2.6,1.5s1.9-.6,1.9-1.4-.6-1.1-1.9-1.8c-1.4-.8-2.3-1.7-2.3-3,0-2,1.8-3.4,4-3.4s2.5.7,3.4,1.5l-1.3,1.3c-.5-.6-1.2-1-2.1-1s-1.7.6-1.7,1.4.9,1.2,1.8,1.7c1.6.9,2.4,1.7,2.4,3,0,2.1-1.8,3.5-4.3,3.5s-3-.8-3.8-2.1h0Z"/>
  <path class="cls-3" d="M105.2,20.4h-6.8l.7-3.4h17.6l-.7,3.4h-6.8l-4.3,21.1h-4.1l4.3-21.1h.2,0Z"/>
  <path class="cls-3" d="M109.7,34.6c0-7,5.1-11.8,10.1-11.8s6.8,2.9,6.8,7.5c0,7-5.1,11.8-10.1,11.8s-6.8-2.9-6.8-7.5ZM122.6,30.3c0-2.7-1.2-4.4-3.2-4.4s-5.6,3.7-5.6,8.4,1.2,4.4,3.2,4.4,5.6-3.7,5.6-8.4Z"/>
  <path class="cls-3" d="M127.6,34.6c0-7,5.1-11.8,10.2-11.8s6.8,2.9,6.8,7.5c0,7-5.1,11.8-10.2,11.8s-6.8-2.9-6.8-7.5ZM140.5,30.3c0-2.7-1.2-4.4-3.2-4.4s-5.6,3.7-5.6,8.4,1.2,4.4,3.2,4.4,5.6-3.7,5.6-8.4Z"/>
</svg>