<?xml version="1.0" encoding="UTF-8"?>
<svg id="Layer_1" data-name="Layer 1" xmlns="http://www.w3.org/2000/svg" version="1.1" viewBox="0 0 70 70">
  <defs>
    <style>
      .cls-1 {
        fill: #e9ffb0;
      }

      .cls-1, .cls-2, .cls-3, .cls-4, .cls-5 {
        stroke-width: 0px;
      }

      .cls-6 {
        font-family: FZLTZHK--GBK1-0, 'Lantinghei SC';
        font-size: 15.1px;
        letter-spacing: .1em;
      }

      .cls-2, .cls-7 {
        fill: #000;
      }

      .cls-3 {
        fill: #dc5d00;
      }

      .cls-4, .cls-8 {
        fill: red;
      }

      .cls-5 {
        fill: #ffffc2;
      }
    </style>
  </defs>
  <g id="Layer_1-2" data-name="Layer 1-2">
    <rect class="cls-1" x="3.7" y="5.3" width="63" height="48.2" rx="6.7" ry="6.7"/>
    <path class="cls-1" d="M29.3,48.1s4.7,16.6,29.8,17.5c0,0-17-5.1-17.5-19.6l-12.4,2.1h.1Z"/>
    <path class="cls-2" d="M12.8,23.6c0-3.2,2.2-5.7,4.9-5.7s1.9.6,2.5,1.5l-1.3,1c-.3-.5-.7-.8-1.2-.8-1.6,0-2.8,1.8-2.8,3.9s.6,2.3,1.9,2.3,1.1-.3,1.6-.7l.8,1.2c-.6.5-1.5,1.1-2.8,1.1-2.1,0-3.5-1.4-3.5-3.9h-.1Z"/>
    <path class="cls-2" d="M20.3,24.9c0-2.7,1.8-4.8,3.8-4.8s1.3.4,1.5.9h0l.3-.8h1.6l-1.4,7h-1.6v-.9h0c-.6.7-1.5,1.1-2.2,1.1-1.2,0-2-.9-2-2.6h0ZM24.6,24.9l.5-2.5c-.2-.5-.6-.7-.9-.7-1,0-1.9,1.3-1.9,3s.3,1.2.8,1.2,1-.2,1.5-1Z"/>
    <path class="cls-2" d="M28.5,26.1c0-.2,0-.5.1-.9l1.6-7.9h1.9l-1.6,7.9v.3c0,.2.1.3.3.3h.3v1.4c-.3,0-.6.2-1.1.2-1,0-1.4-.5-1.4-1.4h-.1Z"/>
    <path class="cls-2" d="M32.1,26.1v-.9l1.6-7.9h1.9l-1.6,7.9v.3c0,.2,0,.3.3.3h.3v1.4c-.3,0-.6.2-1.1.2-1,0-1.4-.5-1.4-1.4h0Z"/>
    <path class="cls-2" d="M40.9,18.1h2.1l.7,4.3.2,1.7h0l.9-1.7,2.3-4.3h2.1l-1.9,9.2h-1.8l.8-3.7c.2-.9.6-2.2.8-3.1h0l-1.1,2.1-2.2,3.8h-.8l-.7-3.8-.3-2.1h0c0,.9-.2,2.2-.4,3.1l-.7,3.7h-1.8s1.8-9.2,1.8-9.2Z"/>
    <path class="cls-2" d="M53.3,20.1c1.7,0,2.3,1.2,2.3,2.6s-.2,1.4-.4,1.6h-4c0,1.2.7,1.7,1.6,1.7s.9-.2,1.3-.5l.7,1.2c-.6.4-1.4.7-2.5.7-1.7,0-2.9-1.1-2.9-3s2-4.4,3.9-4.4h0ZM53.9,23.2v-.5c0-.6-.2-1-.9-1s-1.4.5-1.7,1.6h2.6Z"/>
    <path class="cls-4" d="M15.8,31.1h2.4l1.9,6,.6,2.5h0c.1-1.2.2-2.8.5-4.2l.9-4.4h2.3l-2.3,11.6h-2.3l-1.9-6-.6-2.6h0c-.1,1.3-.2,2.8-.5,4.1l-.9,4.4h-2.3l2.3-11.6v.2h-.1Z"/>
    <path class="cls-4" d="M24.9,38c0-4.1,2.7-7.1,5.9-7.1s4.3,1.8,4.3,4.9-2.7,7.1-5.9,7.1-4.3-1.8-4.3-4.9ZM32.7,35.9c0-1.8-.7-2.9-2-2.9s-3.3,2.2-3.3,4.8.7,2.9,2,2.9,3.3-2.2,3.3-4.8Z"/>
    <path class="cls-4" d="M36.9,31.1h2.5l-.4,5.5c0,1.2-.2,2.5-.4,3.7h0c.5-1.2,1-2.5,1.5-3.7l2.4-5.5h2v9.2h0c.4-1.2.9-2.5,1.3-3.7l2-5.5h2.3l-4.5,11.6h-3.1v-5.5c0-.7,0-1.8.2-2.7h0c-.3.9-.7,1.8-1,2.7l-2.3,5.5h-3l.4-11.6h0Z"/>
    <g>
      <path class="cls-2" d="M51.4,43.3c2.3,0,2.3-3.6,0-3.6s-2.3,3.6,0,3.6h0Z"/>
      <path class="cls-2" d="M53.2,38.9l-1.3-.5c-.3,0-.3-.7,0-1.3l1.3-5c.2-.6.7-1,1.1-.9l1.9.7c.4.1.4.7.2,1.4l-2.2,4.7c-.2.6-.6,1.1-.9,1h0Z"/>
    </g>
  </g>
  <path class="cls-3" d="M62,7.3H12.4c-3.7,0-6.7,3-6.7,6.7v34.8c0,3.7,3,6.7,6.7,6.7h21.8c3.6,4.9,11.3,11.5,26.9,12.1,0,0-11-3.3-15.5-12.1h16.4c3.7,0,6.7-3,6.7-6.7V14c0-3.7-3-6.7-6.7-6.7Z"/>
  <path class="cls-5" d="M60,5.3H10.4c-3.7,0-6.7,3-6.7,6.7v34.8c0,3.7,3,6.7,6.7,6.7h21.8c3.6,4.9,11.3,11.5,26.9,12.1,0,0-11-3.3-15.5-12.1h16.4c3.7,0,6.7-3,6.7-6.7V12c0-3.7-3-6.7-6.7-6.7Z"/>
  <text class="cls-6" transform="translate(20.7 25.7)"><tspan class="cls-7"><tspan x="0" y="0">联络</tspan></tspan><tspan class="cls-8"><tspan x="0" y="18.1">我们</tspan></tspan></text>
</svg>