<?xml version="1.0" encoding="UTF-8"?>
<svg id="Layer_1" data-name="Layer 1" xmlns="http://www.w3.org/2000/svg" xmlns:xlink="http://www.w3.org/1999/xlink" version="1.1" viewBox="0 0 70 70">
  <defs>
    <style>
      .cls-1 {
        fill: #fcfefd;
      }

      .cls-1, .cls-2, .cls-3 {
        stroke-width: 0px;
      }

      .cls-4 {
        filter: url(#drop-shadow-1);
      }

      .cls-2 {
        fill: #32d951;
      }

      .cls-3 {
        fill: #fff;
      }
    </style>
    <filter id="drop-shadow-1" filterUnits="userSpaceOnUse">
      <feOffset dx="2" dy="2"/>
      <feGaussianBlur result="blur" stdDeviation="2"/>
      <feFlood flood-color="#000" flood-opacity=".75"/>
      <feComposite in2="blur" operator="in"/>
      <feComposite in="SourceGraphic"/>
    </filter>
  </defs>
  <g class="cls-4">
    <circle class="cls-2" cx="35" cy="35" r="24.97"/>
    <path class="cls-3" d="M16.84,52.58l2.6-9.64c-1.49-2.7-2.27-5.74-2.27-8.84,0-2.47.48-4.87,1.44-7.12.92-2.18,2.24-4.14,3.92-5.82s3.64-3,5.82-3.92c2.26-.95,4.65-1.44,7.12-1.44s4.87.48,7.12,1.44c2.18.92,4.14,2.24,5.82,3.92,1.68,1.68,3,3.64,3.92,5.82.95,2.26,1.44,4.65,1.44,7.12s-.48,4.87-1.44,7.12c-.92,2.18-2.24,4.14-3.92,5.82s-3.64,3-5.82,3.92c-2.26.95-4.65,1.44-7.12,1.44-3.03,0-6.01-.75-8.66-2.18l-.75.2-9.21,2.16ZM27.23,46.99l.54.32c2.33,1.36,4.99,2.08,7.7,2.08,4.08,0,7.92-1.59,10.81-4.48,2.89-2.89,4.48-6.73,4.48-10.81s-1.59-7.92-4.48-10.81-6.73-4.48-10.81-4.48-7.92,1.59-10.81,4.48c-2.89,2.89-4.48,6.73-4.48,10.81,0,2.73.73,5.41,2.11,7.75l.07.13.26.74-1.56,5.78,4.28-1,1.88-.5ZM25.71,48.95h0,0Z"/>
    <path class="cls-1" d="M33.25,36.21c-1.28-1.13-2.29-2.85-2.42-3.25s-.2-.6.1-1,1.06-1.09,1.29-1.46.27-.63.1-1-.73-1.92-1.39-3.62-2.59-.86-3.05-.53-1.77,2.16-1.92,3.88c-.13,1.49,0,2.29,1.19,4.31s2.92,4.53,5.07,6.27,3.88,2.39,5.51,2.95,2.72.76,3.98.4,2.09-.86,2.59-1.76.53-1.46.53-1.99-.23-.63-.56-.93-2.95-1.53-3.45-1.79-1.16-.2-1.36.2-1.03,1.36-1.39,1.66-.66.53-1.33.1-2.09-1.23-3.48-2.45Z"/>
  </g>
</svg>